# xmcd CD database file
#
# Track frame offsets:
#	150
#	19871
#	39525
#	55965
#	75972
#	94154
#	110325
#	126943
#	149941
#	173743
#
# Disc length: 2664 seconds
#
# Revision: 0
# Processed by: cddbd v1.5.2PL0 Copyright (c) Steve Scherf et al.
# Submitted via: CDex 1.91
#
DISCID=850a660a
DTITLE=Bocinegro - Bocinegro
DYEAR=1900
DGENRE=Blues
TTITLE0=New Slave Generation
TTITLE1=Argelian Blues
TTITLE2=Music In My Blood
TTITLE3=Bocinegro Swim On
TTITLE4=Potes
TTITLE5=Teacher
TTITLE6=Never Tool Late
TTITLE7=Down
TTITLE8=Feel Good
TTITLE9=What You Want To Me To Do
EXTD=
EXTT0=
EXTT1=
EXTT2=
EXTT3=
EXTT4=
EXTT5=
EXTT6=
EXTT7=
EXTT8=
EXTT9=
PLAYORDER=
